<svg width="33" height="33" viewBox="0 0 33 33" fill="none" xmlns="http://www.w3.org/2000/svg">
<path fill-rule="evenodd" clip-rule="evenodd" d="M3.41406 3.41309H29.5865V29.5855H3.41406V3.41309Z" fill="#016FD0"/>
<path fill-rule="evenodd" clip-rule="evenodd" d="M12.895 25.4439V16.0654L29.5858 16.08V18.6711L27.6563 20.7329L29.5858 22.8136V25.4585H26.5061L24.8689 23.6526L23.2433 25.4658L12.895 25.4439Z" fill="white"/>
<path fill-rule="evenodd" clip-rule="evenodd" d="M14.0083 24.4148V17.0967H20.2141V18.7819H16.0178V19.9262H20.1137V21.5838H16.0178V22.7077H20.2141V24.4148H14.0083Z" fill="#016FD0"/>
<path fill-rule="evenodd" clip-rule="evenodd" d="M20.1826 24.4148L23.617 20.7507L20.1826 17.0967H22.8406L24.9388 19.4159L27.0426 17.0967H29.5858V17.1549L26.2255 20.7507L29.5858 24.31V24.4148H27.0166L24.882 22.0723L22.7679 24.4148H20.1826Z" fill="#016FD0"/>
<path fill-rule="evenodd" clip-rule="evenodd" d="M13.6737 7.74219H17.6971L19.1104 10.9513V7.74219H24.0773L24.9338 10.1472L25.793 7.74219H29.5867V17.1206H9.5415L13.6737 7.74219Z" fill="white"/>
<path fill-rule="evenodd" clip-rule="evenodd" d="M14.4353 8.76172L11.1885 16.0739H13.4161L14.0283 14.6097H17.3477L17.9599 16.0739H20.2428L17.0074 8.76172H14.4353ZM14.7145 12.9681L15.6888 10.6402L16.6614 12.9681H14.7145Z" fill="#016FD0"/>
<path fill-rule="evenodd" clip-rule="evenodd" d="M20.2114 16.0729V8.76074L23.342 8.77238L24.953 13.2668L26.5743 8.76074H29.5869V16.0729L27.6488 16.0905V11.0668L25.8181 16.0729H24.0487L22.1802 11.0508V16.0729H20.2114Z" fill="#016FD0"/>
</svg>
