<svg width="67" height="33" viewBox="0 0 67 33" fill="none" xmlns="http://www.w3.org/2000/svg">
<g clip-path="url(#clip0_2725_741)">
<path d="M6.02148 14.9601H10.079C10.8111 11.0942 14.1707 7.98779 18.4539 7.98779C22.7372 7.98779 26.7399 11.4568 26.7399 16.6912C26.7399 17.176 26.6852 17.697 26.6305 18.0939H13.5275C14.1433 20.475 16.1002 21.8708 18.4539 21.8708C20.8077 21.8708 21.9845 21.0839 23.1819 19.7155L25.5904 21.9255C23.9962 23.7456 21.6151 25.0046 18.4539 25.0046C15.2928 25.0046 10.8111 21.9529 10.0858 18.087H6.02148V14.9532V14.9601ZM23.2641 14.9601C23.093 13.9816 22.6483 13.0853 22.0051 12.4421C21.1635 11.6005 19.9319 11.0737 18.4471 11.0737C16.9623 11.0737 15.7581 11.58 14.8617 12.4763C13.9654 13.3727 13.7396 13.9337 13.4933 14.9669H23.2641V14.9601ZM29.1758 8.09727H32.6996V21.5355H39.0834V24.8951H32.7543C30.4279 24.8951 29.169 23.6361 29.169 21.3097V8.09727H29.1758ZM39.754 16.4996C39.754 11.9358 43.4762 7.98779 48.4026 7.98779C53.3291 7.98779 56.1823 11.0668 56.9144 14.9601H60.9719V18.0939H56.9144C56.1618 21.9598 52.7406 25.0114 48.4026 25.0114C43.4488 25.0114 39.754 21.0908 39.754 16.4996ZM48.4095 21.7066C51.3517 21.7066 53.5344 19.4692 53.5344 16.527C53.5344 13.5848 51.2969 11.2926 48.4095 11.2926C45.4673 11.2926 43.2846 13.53 43.2846 16.4996C43.2846 19.4692 45.522 21.7066 48.4095 21.7066Z" fill="#003933"/>
</g>
<defs>
<clipPath id="clip0_2725_741">
<rect width="54.9573" height="17.0236" fill="white" transform="translate(6.02148 7.98779)"/>
</clipPath>
</defs>
</svg>
