<svg width="151" height="32" viewBox="0 0 151 32" fill="none" xmlns="http://www.w3.org/2000/svg">
<path d="M16.3836 31.2435C24.903 31.2435 31.8173 24.3292 31.8173 15.8098C31.8173 7.29039 24.903 0.376099 16.3836 0.376099C7.86424 0.376099 0.949951 7.29039 0.949951 15.8098C0.949951 24.3292 7.86424 31.2435 16.3836 31.2435Z" fill="#171527"/>
<path fill-rule="evenodd" clip-rule="evenodd" d="M16.3837 23.7736C20.7823 23.7736 24.3475 20.2084 24.3475 15.8098C24.3475 11.4112 20.7823 7.84606 16.3837 7.84606C11.9851 7.84606 8.41992 11.4112 8.41992 15.8098C8.41992 20.2084 11.9851 23.7736 16.3837 23.7736ZM26.7706 15.8098C26.7706 21.5512 22.125 26.1967 16.3837 26.1967C10.6424 26.1967 5.99683 21.5512 5.99683 15.8098C5.99683 10.0685 10.6424 5.42297 16.3837 5.42297C22.125 5.42297 26.7706 10.0685 26.7706 15.8098Z" fill="url(#paint0_linear_8587_51458)"/>
<path d="M51.5724 9.7135C50.2142 9.7135 48.4393 10.3617 47.714 11.8896V9.96044H46.0471V21.6592H47.714V15.2696C47.714 12.4144 49.7358 11.3649 51.5724 11.3649C53.3627 11.3649 54.3813 12.6922 54.3813 14.8375V21.6592H56.0481V14.8529C56.079 11.6736 54.4122 9.7135 51.5724 9.7135Z" fill="#171527"/>
<path d="M77.7789 9.7135C76.4208 9.7135 74.6459 10.3617 73.9205 11.8896V9.96044H72.2537V21.6592H73.9205V15.2696C73.9205 12.4144 75.9423 11.3649 77.7789 11.3649C79.5692 11.3649 80.5879 12.6922 80.5879 14.8375V21.6592H82.2547V14.8529C82.2856 11.6736 80.6187 9.7135 77.7789 9.7135Z" fill="#171527"/>
<path d="M85.3567 9.97583V21.6746H87.0081L86.9927 9.97583H85.3567Z" fill="#171527"/>
<path d="M108.322 15.7789C108.322 12.0748 105.945 9.72888 102.627 9.72888C99.3088 9.72888 96.7468 12.0748 96.7468 15.7789C96.7468 19.483 99.2934 21.9061 102.643 21.9061C104.973 21.9061 106.995 20.6714 107.936 18.5878C107.412 18.4643 106.763 18.3409 106.269 18.2174C105.544 19.4984 104.201 20.2547 102.643 20.2547C100.482 20.2547 98.7532 18.9274 98.46 16.6432H108.307C108.322 16.4271 108.322 16.0258 108.322 15.7789ZM98.4445 14.9918C98.7686 12.7693 100.482 11.3649 102.627 11.3649C104.757 11.3649 106.3 12.7539 106.624 14.9918H98.4445Z" fill="#171527"/>
<path d="M68.7347 9.96045H67.0833V21.6592H68.7347V9.96045Z" fill="#171527"/>
<path d="M42.4666 9.96045H40.7998V21.6592H42.4666V9.96045Z" fill="#171527"/>
<path d="M93.3205 4.5741H91.6537V9.97589H89.7554V11.6427H91.6537V21.6746H93.3205V11.6427H95.2189V9.97589H93.3205V4.5741Z" fill="#171527"/>
<path d="M63.7804 4.5741C60.7245 4.5741 59.7213 6.75024 59.7213 9.55918V9.96045H57.823V11.6119H59.7213V21.6746H61.3882V11.6119H64.4595V9.97589H61.3882V9.57461C61.3573 8.03124 61.558 6.1792 63.765 6.1792H64.9997V4.58953L63.7804 4.5741Z" fill="#171527"/>
<path d="M41.6331 4.5741H41.5868C40.9231 4.58953 40.4138 5.12971 40.4138 5.79336C40.4138 6.47244 40.954 7.01262 41.6331 7.01262C42.3122 7.01262 42.8523 6.47244 42.8523 5.79336C42.8369 5.11427 42.2967 4.5741 41.6331 4.5741Z" fill="#171527"/>
<path d="M86.1748 4.5741C85.5112 4.5741 84.971 5.11427 84.9556 5.79336C84.9556 6.47244 85.4957 7.01262 86.1748 7.01262C86.8385 7.01262 87.3941 6.47244 87.3941 5.79336C87.3941 5.11427 86.8539 4.5741 86.1748 4.5741Z" fill="#171527"/>
<path d="M67.9167 4.55859H67.8859C67.2222 4.57403 66.7129 5.11421 66.7129 5.77785C66.7129 6.45694 67.2531 6.99711 67.9167 6.99711C68.5804 6.99711 69.136 6.45694 69.136 5.77785C69.1205 5.11421 68.5804 4.55859 67.9167 4.55859Z" fill="#171527"/>
<path d="M117.552 9.7135C116.024 9.7135 114.542 10.3926 113.925 11.5501V9.97588H110.9V27.3542H113.925V20.1158C114.542 21.2888 116.039 21.9215 117.552 21.9215C120.592 21.9215 123.231 19.5448 123.231 15.8098C123.231 12.1212 120.592 9.7135 117.552 9.7135ZM117.058 19.0046C115.468 19.0046 113.986 17.8779 113.971 15.8561C113.971 13.896 115.375 12.6459 117.058 12.6459C118.74 12.6459 120.114 13.9578 120.114 15.8561C120.114 17.7545 118.725 19.0046 117.058 19.0046Z" fill="#171527"/>
<path d="M134.096 9.97588V11.4266C133.248 10.1148 131.534 9.7135 130.485 9.7135C127.429 9.7135 124.558 12.0594 124.558 15.8098C124.558 19.5448 127.414 21.9061 130.485 21.9061C131.627 21.9061 133.34 21.3814 134.096 20.1775V21.6746H137.121V9.97588H134.096ZM130.917 18.9428H130.871C129.127 18.9583 127.722 17.5384 127.707 15.7944C127.707 13.896 129.25 12.6459 130.917 12.6459C132.507 12.6459 134.112 13.8034 134.112 15.7944C134.096 17.8008 132.553 18.9428 130.917 18.9428Z" fill="#171527"/>
<path d="M147.74 9.94495L144.838 17.2142L141.952 9.94495H138.696L143.171 20.8874L140.594 27.3078H143.789L150.95 9.94495H147.74Z" fill="#171527"/>
<defs>
<linearGradient id="paint0_linear_8587_51458" x1="16.3842" y1="5.42407" x2="16.3842" y2="26.1956" gradientUnits="userSpaceOnUse">
<stop stop-color="#00EE26"/>
<stop offset="1" stop-color="#FFC600"/>
</linearGradient>
</defs>
</svg>
